<?xml version="1.0" standalone="no"?>
<!DOCTYPE svg PUBLIC "-//W3C//DTD SVG 20010904//EN"
 "http://www.w3.org/TR/2001/REC-SVG-20010904/DTD/svg10.dtd">
<svg version="1.0" xmlns="http://www.w3.org/2000/svg"
 width="934.000000pt" height="930.000000pt" viewBox="0 0 934.000000 930.000000"
 preserveAspectRatio="xMidYMid meet">

<g transform="translate(0.000000,930.000000) scale(0.100000,-0.100000)"
fill="#000000" stroke="none">
<path d="M2673 9058 c-13 -6 -27 -26 -33 -47 -6 -24 -10 -986 -10 -2794 0
-2388 2 -2762 15 -2792 23 -58 90 -70 135 -25 20 20 20 45 20 2820 l0 2801
-25 24 c-26 27 -64 31 -102 13z"/>
<path d="M3122 9063 c-7 -3 -19 -18 -27 -33 -13 -25 -15 -375 -15 -2809 0
-2016 3 -2787 11 -2804 11 -25 47 -47 74 -47 27 0 63 22 74 47 8 17 11 788 11
2804 0 2973 2 2824 -45 2843 -19 7 -64 7 -83 -1z"/>
<path d="M3555 9045 l-25 -24 0 -2801 c0 -2775 0 -2800 20 -2820 45 -45 112
-33 135 25 13 30 15 404 15 2792 0 1803 -4 2770 -10 2794 -17 60 -91 79 -135
34z"/>
<path d="M4001 9051 c-11 -11 -23 -35 -26 -53 -3 -18 -4 -1281 -3 -2806 l3
-2774 28 -24 28 -24 1037 0 c612 0 1084 4 1151 10 350 31 668 167 943 403 243
208 429 505 512 821 47 177 59 285 53 476 -12 348 -109 640 -310 925 -60 85
-168 207 -208 236 l-29 21 -93 -88 c-174 -164 -303 -257 -479 -344 l-117 -58
49 -25 c176 -91 304 -300 351 -574 16 -97 7 -277 -20 -371 -71 -247 -263 -456
-502 -546 -152 -57 -131 -56 -1224 -56 l-1005 0 0 2410 0 2411 -25 24 c-30 31
-86 34 -114 6z"/>
<path d="M4450 8981 l0 -91 634 0 c367 0 677 -4 737 -10 295 -30 549 -138 775
-330 325 -275 510 -697 491 -1119 -9 -216 -55 -390 -152 -586 -164 -332 -494
-607 -851 -710 -185 -54 -206 -55 -946 -55 l-688 0 0 -90 0 -90 698 0 c663 0
702 1 806 21 214 40 435 129 605 244 116 77 253 195 318 274 366 438 480 998
311 1531 -82 259 -257 526 -461 701 -195 168 -412 283 -647 345 -174 45 -184
46 -922 51 l-708 5 0 -91z"/>
<path d="M4450 8481 l0 -90 703 -3 702 -3 85 -29 c321 -108 539 -338 626 -661
15 -55 19 -103 18 -220 0 -133 -3 -160 -27 -238 -99 -321 -327 -545 -652 -638
-79 -23 -86 -23 -767 -27 l-688 -3 0 -90 0 -90 693 4 c616 3 700 5 766 21 202
48 369 137 515 276 107 102 168 184 232 315 82 167 107 274 108 465 1 115 -4
177 -17 239 -86 398 -394 720 -792 828 l-100 28 -702 3 -703 3 0 -90z"/>
<path d="M4450 7980 l0 -90 633 0 c550 0 640 -2 688 -16 135 -40 238 -140 279
-272 73 -236 -81 -482 -327 -522 -32 -6 -328 -10 -665 -10 l-608 0 0 -91 0
-90 658 3 c601 3 662 5 712 22 366 120 531 501 363 838 -50 99 -154 203 -252
253 -129 64 -134 65 -843 65 l-638 0 0 -90z"/>
<path d="M4450 7480 l0 -90 585 0 c641 0 630 -1 654 58 15 35 6 74 -21 99 -19
17 -56 18 -619 21 l-599 2 0 -90z"/>
<path d="M3756 2560 c-186 -50 -341 -183 -414 -357 -77 -181 -69 -412 20 -588
80 -158 228 -277 396 -320 82 -20 277 -21 353 -1 71 18 159 58 206 92 54 39
123 106 123 119 0 6 -29 39 -64 74 l-65 64 -55 -51 c-240 -219 -608 -134 -718
166 -30 80 -31 264 -3 337 63 166 180 261 350 286 126 19 246 -9 359 -83 32
-21 61 -38 65 -38 3 1 28 31 55 67 58 78 57 79 -38 143 -118 81 -221 110 -384
109 -81 0 -138 -6 -186 -19z"/>
<path d="M5100 2557 c-285 -87 -460 -326 -460 -629 0 -82 28 -213 62 -285 77
-167 237 -301 415 -347 77 -20 287 -21 360 -2 210 56 367 201 440 408 34 96
44 299 19 399 -53 211 -200 373 -408 447 -63 22 -92 26 -213 29 -123 3 -149 0
-215 -20z m293 -182 c205 -43 337 -214 337 -437 0 -231 -122 -400 -327 -453
-149 -39 -288 0 -406 114 -63 60 -102 138 -123 245 -16 81 -16 91 0 172 39
198 151 320 330 359 80 18 107 18 189 0z"/>
<path d="M8176 2565 c-315 -79 -510 -372 -474 -712 29 -270 218 -494 473 -558
80 -20 282 -20 360 0 160 42 310 157 390 299 50 90 85 226 85 333 0 294 -160
527 -430 623 -84 30 -311 38 -404 15z m269 -190 c93 -20 149 -49 213 -112 198
-196 162 -575 -69 -723 -60 -39 -164 -70 -232 -70 -59 0 -156 24 -211 52 -22
11 -64 44 -93 74 -171 171 -175 484 -9 662 56 60 124 98 208 116 83 18 109 18
193 1z"/>
<path d="M2391 2520 c-12 -27 -48 -104 -80 -172 -32 -68 -91 -193 -131 -278
-40 -85 -101 -215 -136 -288 -35 -74 -64 -135 -64 -137 0 -5 -128 -276 -145
-307 -8 -14 -15 -29 -15 -32 0 -3 52 -6 115 -6 101 0 116 2 122 18 3 9 25 59
49 110 l43 92 299 0 298 0 50 -110 49 -110 113 0 c61 0 112 2 112 5 0 7 -103
230 -245 530 -26 55 -62 132 -80 170 -18 39 -52 111 -75 160 -71 151 -121 256
-156 333 -31 69 -34 72 -67 72 -32 0 -36 -4 -56 -50z m85 -385 c10 -27 57
-137 105 -242 l87 -193 -219 0 c-120 0 -219 2 -219 4 0 3 35 83 79 178 43 95
91 206 106 246 16 40 32 69 35 65 4 -4 16 -30 26 -58z"/>
<path d="M690 1930 l0 -631 333 3 333 3 77 38 c114 57 173 134 186 246 9 79
-2 160 -30 215 -21 44 -90 116 -135 143 -18 10 -16 14 28 60 66 68 90 126 90
223 0 63 -5 88 -27 134 -32 68 -106 135 -184 167 -53 22 -70 23 -363 27 l-308
4 0 -632z m545 439 c24 -7 55 -27 78 -51 35 -37 37 -42 37 -105 0 -81 -23
-123 -84 -152 -37 -19 -61 -21 -199 -21 l-157 0 0 170 0 170 143 0 c78 0 160
-5 182 -11z m26 -519 c92 -26 142 -89 142 -179 0 -62 -17 -103 -60 -142 -45
-42 -83 -49 -264 -49 l-169 0 0 190 0 190 158 0 c86 0 173 -5 193 -10z"/>
<path d="M6310 1930 l0 -632 308 4 c289 4 311 6 372 27 107 38 153 66 233 141
99 92 163 226 178 372 25 249 -58 459 -235 589 -74 55 -94 65 -186 96 -72 25
-86 26 -372 31 l-298 4 0 -632z m609 412 c117 -46 201 -136 241 -258 19 -56
21 -81 18 -177 -6 -151 -29 -209 -118 -298 -98 -99 -139 -112 -357 -117 l-173
-4 0 442 0 442 168 -4 c141 -4 175 -8 221 -26z"/>
<path d="M4540 810 c-59 -12 -84 -26 -122 -67 -88 -99 -69 -260 40 -337 37
-26 55 -31 116 -34 58 -3 81 0 112 16 104 54 148 165 112 284 -28 96 -150 161
-258 138z m130 -89 c89 -65 81 -219 -13 -268 -43 -22 -113 -20 -146 5 -100 73
-95 216 10 270 51 27 107 24 149 -7z"/>
<path d="M6110 810 c-59 -12 -84 -26 -122 -67 -88 -99 -69 -260 40 -337 37
-26 55 -31 116 -34 58 -3 81 0 112 16 104 54 148 165 112 284 -28 96 -150 161
-258 138z m130 -89 c89 -65 81 -219 -13 -268 -43 -22 -113 -20 -146 5 -100 73
-95 216 10 270 51 27 107 24 149 -7z"/>
<path d="M2681 608 c-52 -112 -98 -211 -103 -220 -8 -16 -3 -18 32 -18 38 0
41 3 56 40 l16 40 104 0 104 0 20 -40 c18 -35 25 -40 56 -40 30 0 34 3 29 19
-19 60 -195 416 -206 419 -9 1 -46 -67 -108 -200z m144 -10 c17 -39 32 -75 33
-80 2 -4 -28 -8 -67 -8 -39 0 -71 3 -71 8 0 13 63 152 69 152 3 0 20 -32 36
-72z"/>
<path d="M3090 590 l0 -220 135 0 135 0 0 35 0 35 -95 0 -95 0 0 185 0 185
-40 0 -40 0 0 -220z"/>
<path d="M3460 590 l0 -220 130 0 130 0 0 35 0 35 -90 0 -90 0 0 185 0 185
-40 0 -40 0 0 -220z"/>
<path d="M4010 590 l0 -220 35 0 35 0 0 90 0 90 90 0 90 0 0 30 0 30 -90 0
-90 0 0 65 0 65 100 0 100 0 0 35 0 35 -135 0 -135 0 0 -220z"/>
<path d="M4930 590 l0 -220 35 0 34 0 3 83 3 82 31 3 c30 3 35 -2 85 -82 l54
-86 43 0 c32 0 41 3 36 13 -4 6 -30 46 -57 86 -31 47 -46 76 -38 79 30 10 72
57 81 91 19 72 -20 141 -91 161 -19 6 -76 10 -126 10 l-93 0 0 -220z m217 128
c32 -30 30 -71 -4 -98 -21 -17 -38 -20 -82 -18 l-56 3 -3 68 -3 67 62 0 c51 0
67 -4 86 -22z"/>
<path d="M5510 790 c6 -11 42 -68 80 -127 l70 -107 0 -93 0 -93 35 0 35 0 0
95 0 95 73 112 c40 62 76 119 81 126 5 9 -4 12 -36 12 l-44 0 -49 -80 c-53
-89 -63 -99 -75 -79 -4 8 -27 46 -51 86 -44 72 -44 72 -87 73 -40 0 -42 -1
-32 -20z"/>
<path d="M6500 643 c0 -150 2 -172 20 -201 31 -50 75 -72 145 -72 73 0 121 22
152 69 22 32 23 44 23 202 l0 169 -35 0 -35 0 0 -145 c0 -173 -10 -207 -64
-225 -27 -9 -44 -9 -71 0 -57 19 -65 46 -65 220 l0 150 -35 0 -35 0 0 -167z"/>
</g>
</svg>
